HIERARCHY
ROOT Hips
{
	OFFSET -0.001795 -0.223333 0.028219
	CHANNELS 6 Xposition Yposition Zposition Zrotation Yrotation Xrotation 
	JOINT LeftUpLeg
	{
		OFFSET 0.069520 -0.091406 -0.006815
		CHANNELS 3 Zrotation Yrotation Xrotation
		JOINT LeftLeg
		{
			OFFSET 0.034277 -0.375199 -0.004496
			CHANNELS 3 Zrotation Yrotation Xrotation
			JOINT LeftFoot
			{
				OFFSET -0.013596 -0.397961 -0.043693
				CHANNELS 3 Zrotation Yrotation Xrotation
				JOINT LeftToe
				{
					OFFSET 0.026358 -0.055791 0.119288
					CHANNELS 3 Zrotation Yrotation Xrotation
					End Site
					{
						OFFSET 0.000000 0.000000 0.000000
					}
				}
			}
		}
	}
	JOINT RightUpLeg
	{
		OFFSET -0.067670 -0.090522 -0.004320
		CHANNELS 3 Zrotation Yrotation Xrotation
		JOINT RightLeg
		{
			OFFSET -0.038290 -0.382569 -0.008850
			CHANNELS 3 Zrotation Yrotation Xrotation
			JOINT RightFoot
			{
				OFFSET 0.015774 -0.398415 -0.042312
				CHANNELS 3 Zrotation Yrotation Xrotation
				JOINT RightToe
				{
					OFFSET -0.025372 -0.048144 0.123348
					CHANNELS 3 Zrotation Yrotation Xrotation
					End Site
					{
						OFFSET 0.000000 0.000000 0.000000
					}
				}
			}
		}
	}
	JOINT Spine
	{
		OFFSET -0.002533 0.108963 -0.026696
		CHANNELS 3 Zrotation Yrotation Xrotation
		JOINT Spine1
		{
			OFFSET 0.005487 0.135180 0.001092
			CHANNELS 3 Zrotation Yrotation Xrotation
			JOINT Spine2
			{
				OFFSET 0.001457 0.052922 0.025425
				CHANNELS 3 Zrotation Yrotation Xrotation
				JOINT Neck
				{
					OFFSET -0.002778 0.213870 -0.042857
					CHANNELS 3 Zrotation Yrotation Xrotation
					JOINT Head
					{
						OFFSET 0.005152 0.064970 0.051349
						CHANNELS 3 Zrotation Yrotation Xrotation
						End Site
						{
							OFFSET 0.000000 0.000000 0.000000
						}
					}
				}
				JOINT LeftShoulder
				{
					OFFSET 0.078845 0.121749 -0.034090
					CHANNELS 3 Zrotation Yrotation Xrotation
					JOINT LeftArm
					{
						OFFSET 0.090977 0.030469 -0.008868
						CHANNELS 3 Zrotation Yrotation Xrotation
						JOINT LeftForeArm
						{
							OFFSET 0.259612 -0.012772 -0.027456
							CHANNELS 3 Zrotation Yrotation Xrotation
							JOINT LeftHand
							{
								OFFSET 0.249234 0.008986 -0.001171
								CHANNELS 3 Zrotation Yrotation Xrotation
								End Site
								{
									OFFSET 0.000000 0.000000 0.000000
								}
							}
						}
					}
				}
				JOINT RightShoulder
				{
					OFFSET -0.081759 0.118833 -0.038615
					CHANNELS 3 Zrotation Yrotation Xrotation
					JOINT RightArm
					{
						OFFSET -0.096012 0.032551 -0.009143
						CHANNELS 3 Zrotation Yrotation Xrotation
						JOINT RightForeArm
						{
							OFFSET -0.253742 -0.013329 -0.021401
							CHANNELS 3 Zrotation Yrotation Xrotation
							JOINT RightHand
							{
								OFFSET -0.255298 0.007772 -0.005559
								CHANNELS 3 Zrotation Yrotation Xrotation
								End Site
								{
									OFFSET 0.000000 0.000000 0.000000
								}
							}
						}
					}
				}
			}
		}
	}
}
MOTION
Frames: 14
Frame Time: 0.050000
0.012940 0.954700 0.101769 -4.525976 -22.600878 7.813805 7.362827 0.377352 3.175840 -5.323233 0.939280 1.546847 21.191889 33.494623 22.389215 0.000000 0.000000 0.000000 0.247031 2.993030 -21.949678 -1.078150 1.241537 13.647039 3.540923 -1.655009 12.286317 0.000000 0.000000 0.000000 7.468076 -0.386537 2.454326 -3.294248 1.329548 -30.627425 -10.739045 -15.139633 28.504880 10.923723 -5.249236 -41.504230 0.000000 0.000000 0.000000 30.714117 -29.243374 -1.321222 25.986760 -50.234949 -5.222168 45.712953 11.072584 6.251726 0.000000 0.000000 0.000000 -11.181990 1.277109 3.875345 -26.002590 63.658735 -32.667742 -51.073163 13.728413 -8.772068 0.000000 0.000000 0.000000 
0.015802 0.955481 0.100507 -4.307308 -22.942157 8.162185 6.934100 0.354357 2.898995 -5.739206 0.993270 0.715835 22.322914 34.591002 23.466464 0.000000 0.000000 0.000000 -0.180429 3.075517 -22.589830 -1.104719 1.209915 13.293919 4.138379 -0.764299 12.636091 0.000000 0.000000 0.000000 7.967459 -0.363601 2.111145 -3.539631 1.339090 -30.123261 -11.089859 -15.561978 29.095142 10.136849 -5.108239 -41.709647 0.000000 0.000000 0.000000 31.321465 -29.904845 -1.513373 26.602243 -49.586610 -5.094538 44.260873 10.936572 5.926773 0.000000 0.000000 0.000000 -11.168933 1.483709 3.957597 -26.627004 62.843854 -32.820059 -48.031112 14.272322 -8.468741 0.000000 0.000000 0.000000 
0.018386 0.956388 0.100582 -4.007339 -23.230953 8.405061 6.280839 0.333723 2.764675 -5.631651 0.963873 0.283275 22.785908 35.051316 23.847692 0.000000 0.000000 0.000000 -0.498074 3.126657 -23.000619 -1.657560 1.269461 12.911184 4.730866 -0.044024 13.192100 0.000000 0.000000 0.000000 8.448568 -0.365440 2.045675 -3.565090 1.321312 -29.823802 -11.183007 -15.715163 28.884897 9.147248 -4.865864 -41.565184 0.000000 0.000000 0.000000 32.448031 -29.918777 -1.930125 27.359673 -50.158817 -5.193714 41.728872 12.252972 5.887801 0.000000 0.000000 0.000000 -11.852658 1.546698 4.246937 -26.012139 62.686105 -32.586401 -46.002591 14.682733 -8.301193 0.000000 0.000000 0.000000 
0.021036 0.956843 0.101535 -3.551543 -23.011873 8.490376 5.723304 0.298684 2.500864 -5.950630 1.010741 0.048527 23.213243 35.501910 24.130829 0.000000 0.000000 0.000000 -1.485212 3.056388 -23.320433 -1.415639 1.174304 12.514457 5.538737 0.940089 14.119031 0.000000 0.000000 0.000000 8.824775 -0.326237 1.652892 -3.810410 1.333042 -29.258553 -11.398436 -16.251155 29.383145 8.438371 -4.756813 -41.576131 0.000000 0.000000 0.000000 32.931828 -30.529642 -2.059958 29.265915 -49.915201 -5.619087 39.619040 13.088209 5.682991 0.000000 0.000000 0.000000 -11.596334 1.654232 4.209369 -26.374512 62.433285 -32.842702 -45.070235 15.398178 -8.428670 0.000000 0.000000 0.000000 
0.023864 0.956756 0.102412 -3.200904 -23.202950 8.541425 5.129148 0.259987 2.089818 -6.104071 1.044203 0.101118 23.485777 36.047602 23.639655 0.000000 0.000000 0.000000 -1.842278 3.072711 -23.621658 -1.621481 1.195920 12.374196 5.952552 1.769514 14.078316 0.000000 0.000000 0.000000 9.012039 -0.365487 1.960403 -3.686757 1.292110 -28.990977 -11.304090 -16.240002 29.455946 8.386663 -4.839824 -41.378580 0.000000 0.000000 0.000000 33.339569 -30.618389 -2.221911 31.007281 -50.406348 -6.189912 39.234892 14.159318 5.854576 0.000000 0.000000 0.000000 -11.198664 1.457167 4.028955 -26.397018 62.663451 -33.013599 -45.344727 15.863658 -8.671755 0.000000 0.000000 0.000000 
0.026831 0.956405 0.102632 -2.820002 -23.568131 8.293595 4.520833 0.206484 1.403398 -6.098218 1.086534 0.977656 24.099595 36.699486 23.923432 0.000000 0.000000 0.000000 -2.670225 3.050156 -23.998428 -1.180298 1.152106 12.629981 6.726606 2.618777 14.961008 0.000000 0.000000 0.000000 9.141618 -0.428702 2.555713 -3.290938 1.160655 -28.118212 -11.251908 -16.285322 29.679541 7.967200 -4.853692 -41.168789 0.000000 0.000000 0.000000 33.750258 -30.158412 -2.532851 32.995028 -50.648803 -6.695743 39.087016 15.423325 6.172380 0.000000 0.000000 0.000000 -10.860452 1.052980 3.822309 -27.458912 63.000390 -34.046065 -47.614841 15.805739 -9.176304 0.000000 0.000000 0.000000 
0.029814 0.956079 0.102167 -2.427019 -23.926842 8.370562 4.164759 0.150197 0.701406 -6.418507 1.174945 1.372052 24.560046 37.323719 23.791923 0.000000 0.000000 0.000000 -2.890993 3.066941 -24.178275 -1.712013 1.236172 12.514577 7.378414 3.881796 14.934270 0.000000 0.000000 0.000000 8.993471 -0.513158 3.300284 -2.714329 1.018547 -27.749159 -11.266033 -16.251106 29.623101 7.981546 -4.993475 -40.737045 0.000000 0.000000 0.000000 34.520997 -29.863348 -2.864111 34.076562 -50.863787 -6.909926 40.282752 16.814210 6.888038 0.000000 0.000000 0.000000 -10.030053 0.918874 3.489094 -26.919657 64.077680 -34.417836 -50.539396 16.080545 -9.938081 0.000000 0.000000 0.000000 
0.032877 0.955452 0.101436 -1.909786 -24.223685 8.288303 3.713890 0.084353 -0.064600 -6.668369 1.261548 1.946244 25.518411 38.087067 24.793713 0.000000 0.000000 0.000000 -3.559223 3.074582 -24.642559 -1.871032 1.261327 12.474220 8.221348 5.278436 15.288542 0.000000 0.000000 0.000000 8.869879 -0.595725 4.103373 -2.405308 0.961053 -27.734101 -11.547527 -16.472206 30.170079 7.964749 -5.181283 -40.414449 0.000000 0.000000 0.000000 34.802773 -29.448885 -3.128291 34.859093 -51.325200 -7.086702 40.704511 17.831321 7.313960 0.000000 0.000000 0.000000 -9.245902 0.885797 3.181209 -25.580652 64.757497 -34.045914 -53.867050 17.318386 -11.420538 0.000000 0.000000 0.000000 
0.036463 0.955187 0.100698 -1.471314 -24.905935 8.255710 3.376684 0.029286 -0.762192 -7.256867 1.430663 2.398725 26.114755 38.747165 24.934658 0.000000 0.000000 0.000000 -3.858160 3.162691 -25.185637 -2.601309 1.420247 12.635145 9.062535 6.661309 15.564063 0.000000 0.000000 0.000000 8.901358 -0.700503 5.164606 -2.170874 0.918600 -27.835692 -11.830952 -16.850302 30.617600 8.388435 -5.495687 -40.374005 0.000000 0.000000 0.000000 35.004907 -28.620723 -3.447512 34.675118 -51.595617 -6.760063 41.190341 18.014890 7.567906 0.000000 0.000000 0.000000 -8.377412 0.693434 2.796519 -25.677986 65.784662 -35.076142 -56.922917 18.102533 -12.629026 0.000000 0.000000 0.000000 
0.040887 0.954222 0.100096 -0.979852 -25.787227 8.378892 2.550318 -0.058609 -1.554299 -7.162183 1.467464 2.929482 27.368309 39.837681 25.937329 0.000000 0.000000 0.000000 -4.330125 3.257634 -25.824674 -2.988045 1.478186 12.488583 9.430534 7.512135 15.339005 0.000000 0.000000 0.000000 9.158700 -0.808415 6.212079 -2.007022 0.910885 -28.175236 -12.220032 -16.874675 31.645985 8.703316 -5.934774 -39.841478 0.000000 0.000000 0.000000 34.776220 -27.758561 -3.688086 35.860941 -52.031162 -7.022302 41.001903 18.845857 7.775240 0.000000 0.000000 0.000000 -7.634291 0.257807 2.349239 -26.304346 66.674086 -36.382148 -59.754536 19.092963 -13.903053 0.000000 0.000000 0.000000 
0.046118 0.953452 0.099108 -0.520242 -26.286260 8.574937 2.034827 -0.140546 -2.361264 -7.800629 1.668851 3.486009 27.702502 40.606754 25.141110 0.000000 0.000000 0.000000 -4.663277 3.349336 -26.432207 -3.493681 1.559501 12.391103 9.721505 8.222290 15.185347 0.000000 0.000000 0.000000 9.376989 -0.925910 7.362818 -1.543028 0.811912 -28.095700 -12.540703 -17.217376 31.739530 8.860263 -6.171500 -39.508720 0.000000 0.000000 0.000000 34.785383 -26.958803 -3.870487 37.000066 -52.945199 -7.437023 40.010376 19.961254 7.848864 0.000000 0.000000 0.000000 -6.918160 -0.029998 1.951511 -26.266604 67.647431 -37.110715 -62.811358 19.835750 -15.163487 0.000000 0.000000 0.000000 
0.051642 0.952138 0.097454 -0.037550 -27.157446 8.589203 1.263853 -0.242247 -3.246763 -7.863396 1.780017 4.324447 29.006813 41.552121 26.452414 0.000000 0.000000 0.000000 -5.205568 3.490091 -27.339698 -3.714175 1.669944 12.825254 9.866972 8.882410 14.765811 0.000000 0.000000 0.000000 9.708952 -1.040903 8.602711 -1.715204 0.838447 -28.051783 -12.701655 -17.397372 32.493367 8.737556 -6.442949 -39.033103 0.000000 0.000000 0.000000 34.788341 -26.074654 -4.192475 38.568367 -53.886993 -7.923185 38.853122 21.205414 7.861261 0.000000 0.000000 0.000000 -6.397305 -0.064522 1.679655 -26.608433 68.157370 -37.965303 -65.521600 20.098333 -16.155278 0.000000 0.000000 0.000000 
0.056907 0.950633 0.095045 0.336459 -28.027613 8.807665 0.595976 -0.356406 -4.322799 -8.088895 1.946377 5.216375 29.403421 42.332902 25.786753 0.000000 0.000000 0.000000 -5.662649 3.690671 -28.447337 -3.614642 1.685027 12.998819 9.835590 8.553227 14.976864 0.000000 0.000000 0.000000 9.882659 -1.137279 9.755696 -1.403232 0.747788 -27.767295 -13.028115 -17.059610 32.478480 8.955954 -6.485024 -39.323057 0.000000 0.000000 0.000000 34.740143 -25.602485 -4.271258 39.054522 -54.662855 -8.261576 38.426473 21.042611 7.624794 0.000000 0.000000 0.000000 -5.265142 0.495084 1.302047 -25.313242 68.926170 -37.337401 -65.585635 21.302436 -16.792667 0.000000 0.000000 0.000000 
0.061504 0.948473 0.092200 0.736585 -29.106724 8.799037 0.267570 -0.448736 -5.409851 -8.381472 2.195096 6.493885 30.319906 42.982568 26.579195 0.000000 0.000000 0.000000 -6.083063 3.958645 -29.787221 -3.272526 1.771148 13.924121 9.969343 8.860093 14.934368 0.000000 0.000000 0.000000 10.334491 -1.245441 11.061176 -2.080256 0.853253 -27.573023 -12.850488 -16.493162 33.048347 8.584234 -6.643009 -38.533476 0.000000 0.000000 0.000000 34.261203 -25.479445 -4.246874 39.647462 -56.769102 -9.223177 39.095792 21.663085 7.775734 0.000000 0.000000 0.000000 -4.494253 0.881497 1.041007 -22.039220 69.458313 -35.140751 -65.007955 22.910075 -17.662510 0.000000 0.000000 0.000000 
